<svg id="Capa_1" data-name="Capa 1" xmlns="http://www.w3.org/2000/svg" viewBox="0 0 848.15 191.97"><polygon points="607.46 100.58 603.66 103.43 603.76 133.7 580.2 133.71 580.29 16.17 604.72 16.2 604.69 73.97 627.28 53.5 663.25 53.77 624.84 86.42 663.45 133.71 632.18 133.71 607.46 100.58"/><polygon points="693.84 133.72 670.32 133.75 670.35 54.08 693.84 53.95 693.84 133.72"/><path d="M712.36,54h-8.71V73.56h9.28v60.16h23.51l.13-60.16,18.61-.07V54.14l-18.72-.07c-.64,0-.4-8.07-.34-8.64.47-4.54,2.43-9.32,7.32-10.44a12,12,0,0,1,6.8.35,11,11,0,0,1,2.42,1.27c.48.32,2.52,1.63,2.52,2.24V19.48c0-.46-2.37-1.61-2.69-1.8a25.53,25.53,0,0,0-7.64-2.84,28.23,28.23,0,0,0-17.7,2.36c-6.47,3.18-9.8,8.24-12,15A53.69,53.69,0,0,0,713,41.51C712.85,42.64,712,54,712.36,54Z"/><circle cx="682.08" cy="30.9" r="12.36"/><path d="M515.12,81.83c0,.33,0,.68,0,1v50.86H491.63V53.9h23.8v8.44c0-.68,3.12-2.44,3.59-2.75a38.45,38.45,0,0,1,10-4.77,33.67,33.67,0,0,1,25.75,2.5c5.88,3.12,9.8,7.56,11.49,14.15,1.31,5.18.86,10.27,1,15.53,0,3.86.21,7.77.21,11.67q0,11.76-.11,23.42c0,.64-.1,11.62-.14,11.62H543.84l-.41-51.12c-.09-9.38-10.65-13.45-18.56-11a15.82,15.82,0,0,0-5.82,3.13A10.78,10.78,0,0,0,515.12,81.83Z"/><path d="M454.77,53.85h23.92l-.12,79.85h-23.8v-6.86s-9.24,9.31-21,8.61-17.17-1.61-24-8.44-6.39-17.48-6.39-17.48l-.57-55.68h24v47.23a26.64,26.64,0,0,0,.5,7.18,13.46,13.46,0,0,0,6,7.88c4.52,2.68,11.47,1.54,15.67-1.19s5.73-8,5.79-12.83C455,87.7,454.77,53.85,454.77,53.85Z"/><path d="M255.58,30.87h23.79s-.1,22.84,0,22.84l19.3.38V73.3H279l-.19,34.59s.47,10.22,12.14,7.55a14.71,14.71,0,0,0,7.25-4l-.09,19.79s-14.05,9.36-29.34,1.14-13.18-24.48-13.18-24.48l-.1-34.21-8.93-.16.24-19.6h8.82Z"/><path d="M337,134l-23.68.21V16.68h23.93V62.82s4.62-12.13,26.66-9.89c6,.59,12.23,2.38,16.89,6.44,5.21,4.57,6.85,11.86,7.69,18.55.69,5.82.34,11.66.53,17.48s.1,11.81.14,17.71l.11,14.94v5.48l-23.51-.09-.52-50.54S364.72,67,346.63,71.44c0,0-8.56,2.55-9.05,11.69l.17,50.86Z"/><path d="M803.12,93.7,819.84,54h24.71L805,147s-9.86,23.62-23.67,25.94-24.1-8.82-24.1-8.82l7.68-18.89S778.72,157.68,786,139l4.56-14.17s.59-1.85-1.19-5.46S761.54,54,761.54,54h25.1Z"/><circle cx="98.04" cy="94.82" r="9.01"/><circle cx="135.28" cy="57.52" r="9.01"/><circle cx="135.28" cy="132.04" r="9.01"/><circle cx="60.16" cy="57.52" r="9.01"/><circle cx="60.16" cy="132.04" r="9.01"/><circle cx="22.96" cy="170" r="9.01"/><circle cx="22.96" cy="20.14" r="9.01"/><circle cx="172.66" cy="20.14" r="9.01"/><circle cx="172.72" cy="170" r="9.01"/><circle cx="66.33" cy="94.59" r="14.46"/><circle cx="98.04" cy="126.59" r="14.46"/><circle cx="97.72" cy="63.04" r="14.46"/><circle cx="129.83" cy="94.82" r="14.46"/><circle cx="54.3" cy="169.5" r="14.46"/><circle cx="140.73" cy="169.49" r="14.46"/><circle cx="97.51" cy="169.49" r="20.49"/><circle cx="172.72" cy="94.82" r="20.49"/><circle cx="140.88" cy="20.14" r="14.61"/><circle cx="172.72" cy="51.73" r="14.61"/><circle cx="54.55" cy="20.14" r="14.61"/><circle cx="22.96" cy="51.73" r="14.61"/><circle cx="22.96" cy="137.64" r="14.61"/><circle cx="172.67" cy="138.16" r="14.61"/><path d="M29.76,75.25a20.68,20.68,0,0,0-24,8v23a20.71,20.71,0,1,0,24-31.07Z"/><path d="M77.94,13.34A20.72,20.72,0,1,0,107.33,2H87.66A20.54,20.54,0,0,0,77.94,13.34Z"/></svg>