<svg id="Capa_1" data-name="Capa 1" xmlns="http://www.w3.org/2000/svg" viewBox="0 0 856.32 191.97"><defs><style>.cls-1{fill:#fff;}</style></defs><polygon class="cls-1" points="614.27 100.7 610.39 103.61 610.5 134.51 586.44 134.52 586.53 14.53 611.47 14.56 611.44 73.54 634.51 52.64 671.23 52.91 632.01 86.24 671.43 134.52 639.51 134.52 614.27 100.7"/><polygon class="cls-1" points="702.46 134.53 678.45 134.57 678.48 53.23 702.46 53.1 702.46 134.53"/><path class="cls-1" d="M805.21,469.13h-8.9v20h9.48v61.41h24l.13-61.41,19-.08V469.3l-19.11-.07c-.65,0-.41-8.24-.35-8.82.48-4.64,2.48-9.52,7.48-10.66a12.25,12.25,0,0,1,6.94.36,11.62,11.62,0,0,1,2.47,1.29c.49.33,2.57,1.67,2.57,2.29V433.92c0-.47-2.42-1.65-2.75-1.84a26.26,26.26,0,0,0-7.79-2.9,28.85,28.85,0,0,0-18.08,2.41c-6.6,3.24-10,8.41-12.28,15.26a55.06,55.06,0,0,0-2.15,9.56C805.71,457.56,804.79,469.13,805.21,469.13Z" transform="translate(-83.84 -416.01)"/><circle class="cls-1" cx="690.45" cy="29.56" r="12.62"/><path class="cls-1" d="M603.84,497.57c0,.34-.05.69-.05,1v51.92H579.86V469.07h24.3v8.61c0-.69,3.18-2.49,3.66-2.81A39.74,39.74,0,0,1,618,470a34.39,34.39,0,0,1,26.29,2.56c6,3.18,10,7.71,11.73,14.44,1.34,5.29.88,10.49,1,15.86,0,3.94.22,7.93.22,11.91q0,12-.12,23.91c0,.65-.1,11.86-.14,11.86H633.16l-.42-52.19c-.07-9.58-10.87-13.74-18.94-11.26a16.29,16.29,0,0,0-5.95,3.2A11.06,11.06,0,0,0,603.84,497.57Z" transform="translate(-83.84 -416.01)"/><path class="cls-1" d="M542.23,469h24.41l-.12,81.52H542.23v-7s-9.43,9.51-21.47,8.79-17.53-1.64-24.51-8.62-6.53-17.84-6.53-17.84L489.14,469h24.52v48.22a27.31,27.31,0,0,0,.51,7.33,13.73,13.73,0,0,0,6.11,8.05c4.61,2.73,11.71,1.57,16-1.22s5.85-8.16,5.91-13.1C542.43,503.56,542.23,469,542.23,469Z" transform="translate(-83.84 -416.01)"/><path class="cls-1" d="M338.87,445.54h24.29s-.1,23.32,0,23.32l19.71.39v19.61h-20.1l-.19,35.31s.48,10.44,12.39,7.71a15,15,0,0,0,7.41-4.1l-.1,20.2s-14.34,9.56-29.95,1.17-13.46-25-13.46-25l-.1-34.92-9.09-.13.25-20h9Z" transform="translate(-83.84 -416.01)"/><path class="cls-1" d="M422,550.82l-24.18.21V431h24.43v47.1S427,465.78,449.47,468c6.16.61,12.49,2.43,17.24,6.58,5.32,4.66,7,12.11,7.85,18.94.71,5.94.35,11.9.54,17.84s.11,12.06.15,18.08l.11,15.26v5.59l-24-.09-.53-51.6s-.53-16.22-19-11.7c0,0-8.74,2.61-9.24,11.94l.17,51.92Z" transform="translate(-83.84 -416.01)"/><path class="cls-1" d="M897.86,509.69l17.07-40.5h25.23l-40.35,94.9s-10.06,24.08-24.2,26.45-24.61-9-24.61-9l7.85-19.29s14.06,12.75,21.5-6.3L885,541.49s.6-1.89-1.21-5.58-28.42-66.72-28.42-66.72H881Z" transform="translate(-83.84 -416.01)"/><circle class="cls-1" cx="94.2" cy="94.82" r="9.2"/><circle class="cls-1" cx="132.22" cy="56.74" r="9.2"/><circle class="cls-1" cx="132.22" cy="132.82" r="9.2"/><circle class="cls-1" cx="55.53" cy="56.74" r="9.2"/><circle class="cls-1" cx="55.53" cy="132.82" r="9.2"/><circle class="cls-1" cx="17.55" cy="171.57" r="9.2"/><circle class="cls-1" cx="17.55" cy="18.58" r="9.2"/><circle class="cls-1" cx="170.38" cy="18.58" r="9.2"/><circle class="cls-1" cx="170.44" cy="171.57" r="9.2"/><circle class="cls-1" cx="61.83" cy="94.59" r="14.76"/><circle class="cls-1" cx="94.2" cy="127.26" r="14.76"/><circle class="cls-1" cx="93.87" cy="62.38" r="14.76"/><circle class="cls-1" cx="126.65" cy="94.82" r="14.76"/><circle class="cls-1" cx="133.38" cy="587.06" r="14.76" transform="translate(-545.5 262.48) rotate(-85.93)"/><circle class="cls-1" cx="137.78" cy="171.05" r="14.76"/><circle class="cls-1" cx="93.66" cy="171.05" r="20.92"/><circle class="cls-1" cx="170.44" cy="94.82" r="20.92"/><circle class="cls-1" cx="137.94" cy="18.58" r="14.92"/><circle class="cls-1" cx="170.44" cy="50.83" r="14.92"/><circle class="cls-1" cx="49.8" cy="18.58" r="14.92"/><circle class="cls-1" cx="17.55" cy="50.83" r="14.92"/><circle class="cls-1" cx="17.55" cy="138.54" r="14.92"/><circle class="cls-1" cx="254.22" cy="555.07" r="14.92" transform="translate(-401.31 353.29) rotate(-85.93)"/><path class="cls-1" d="M108.33,490.85a21.12,21.12,0,0,0-24.49,8.22v23.51a21.14,21.14,0,1,0,24.49-31.73Z" transform="translate(-83.84 -416.01)"/><path class="cls-1" d="M157.52,427.65a21.15,21.15,0,1,0,30-11.64H167.44A21,21,0,0,0,157.52,427.65Z" transform="translate(-83.84 -416.01)"/></svg>