<?xml version="1.0" encoding="utf-8"?>
<!-- Generator: Adobe Illustrator 25.4.1, SVG Export Plug-In . SVG Version: 6.00 Build 0)  -->
<svg version="1.1" id="Capa_1" xmlns="http://www.w3.org/2000/svg" xmlns:xlink="http://www.w3.org/1999/xlink" x="0px" y="0px"
	 viewBox="0 0 859.7 196.1" style="enable-background:new 0 0 859.7 196.1;" xml:space="preserve">
<style type="text/css">
	.st0{fill:#FFFFFF;}
</style>
<g>
	<polygon class="st0" points="615.5,101.6 611.6,104.6 611.7,135.5 587.6,135.5 587.7,15.5 612.7,15.5 612.6,74.5 635.7,53.6 
		672.4,53.9 633.2,87.2 672.6,135.5 640.7,135.5 	"/>
	<polygon class="st0" points="703.7,135.5 679.6,135.5 679.7,54.2 703.7,54 	"/>
	<path class="st0" d="M722.6,54.1h-8.9v20h9.5v61.4h24l0.1-61.4l19-0.1V54.2l-19.1-0.1c-0.7,0-0.4-8.2-0.3-8.8
		c0.5-4.6,2.5-9.5,7.5-10.7c2.3-0.6,4.7-0.4,6.9,0.4c0.9,0.3,1.7,0.8,2.5,1.3c0.5,0.3,2.6,1.7,2.6,2.3V18.9c0-0.5-2.4-1.6-2.8-1.8
		c-2.4-1.4-5.1-2.4-7.8-2.9c-6.1-1.2-12.5-0.3-18.1,2.4c-6.6,3.2-10,8.4-12.3,15.3c-1,3.1-1.7,6.3-2.2,9.6
		C723.1,42.5,722.1,54.1,722.6,54.1z"/>
	<circle class="st0" cx="691.6" cy="30.5" r="12.6"/>
	<path class="st0" d="M521.2,82.5c0,0.3,0,0.7,0,1v51.9h-23.9V54h24.3v8.6c0-0.7,3.2-2.5,3.7-2.8c3.1-2.1,6.6-3.7,10.2-4.9
		c8.8-2.7,18.2-1.8,26.3,2.6c6,3.2,10,7.7,11.7,14.4c1.3,5.3,0.9,10.5,1,15.9c0,3.9,0.2,7.9,0.2,11.9c0,8,0,16-0.1,23.9
		c0,0.7-0.1,11.9-0.1,11.9h-23.8l-0.4-52.2c-0.1-9.6-10.9-13.7-18.9-11.3c-2.2,0.6-4.2,1.7-6,3.2C523,77,521.5,79.7,521.2,82.5z"/>
	<path class="st0" d="M459.6,53.9H484l-0.1,81.5h-24.3v-7c0,0-9.4,9.5-21.5,8.8s-17.5-1.6-24.5-8.6c-7-7-6.5-17.8-6.5-17.8
		l-0.6-56.8H431v48.2c-0.2,2.5,0,4.9,0.5,7.3c0.9,3.4,3.1,6.2,6.1,8c4.6,2.7,11.7,1.6,16-1.2s5.8-8.2,5.9-13.1
		C459.8,88.5,459.6,53.9,459.6,53.9z"/>
	<path class="st0" d="M256.2,30.5h24.3c0,0-0.1,23.3,0,23.3l19.7,0.4v19.6h-20.1l-0.2,35.3c0,0,0.5,10.4,12.4,7.7
		c2.8-0.6,5.4-2,7.4-4.1l-0.1,20.2c0,0-14.3,9.6-30,1.2s-13.5-25-13.5-25l-0.1-34.9L247,74l0.2-20h9L256.2,30.5z"/>
	<path class="st0" d="M339.4,135.8l-24.2,0.2V16h24.4v47.1c0,0,4.7-12.4,27.2-10.1c6.2,0.6,12.5,2.4,17.2,6.6
		c5.3,4.7,7,12.1,7.9,18.9c0.7,5.9,0.4,11.9,0.5,17.8c0.2,5.9,0.1,12.1,0.1,18.1l0.1,15.3c0,0.3,0,5.6,0,5.6l-24-0.1l-0.5-51.6
		c0,0-0.5-16.2-19-11.7c0,0-8.7,2.6-9.2,11.9l0.2,51.9L339.4,135.8z"/>
	<path class="st0" d="M815.2,94.6l17.1-40.5h25.2L817.2,149c0,0-10.1,24.1-24.2,26.5s-24.6-9-24.6-9l7.8-19.3
		c0,0,14.1,12.8,21.5-6.3l4.7-14.5c0,0,0.6-1.9-1.2-5.6s-28.4-66.7-28.4-66.7h25.6L815.2,94.6z"/>
	<circle class="st0" cx="95.4" cy="95.8" r="9.2"/>
	<circle class="st0" cx="133.4" cy="57.7" r="9.2"/>
	<circle class="st0" cx="133.4" cy="133.8" r="9.2"/>
	<circle class="st0" cx="56.7" cy="57.7" r="9.2"/>
	<circle class="st0" cx="56.7" cy="133.8" r="9.2"/>
	<circle class="st0" cx="18.7" cy="172.5" r="9.2"/>
	<circle class="st0" cx="18.7" cy="19.5" r="9.2"/>
	<circle class="st0" cx="171.6" cy="19.5" r="9.2"/>
	<circle class="st0" cx="171.6" cy="172.5" r="9.2"/>
	<circle class="st0" cx="63" cy="95.5" r="14.8"/>
	<circle class="st0" cx="95.4" cy="128.2" r="14.8"/>
	<circle class="st0" cx="95.1" cy="63.3" r="14.8"/>
	<circle class="st0" cx="127.8" cy="95.8" r="14.8"/>
	
		<ellipse transform="matrix(7.088905e-02 -0.9975 0.9975 7.088905e-02 -124.4325 210.4085)" class="st0" cx="50.7" cy="172" rx="14.8" ry="14.8"/>
	<circle class="st0" cx="139" cy="172" r="14.8"/>
	<circle class="st0" cx="94.9" cy="172" r="20.9"/>
	<circle class="st0" cx="171.6" cy="95.8" r="20.9"/>
	<circle class="st0" cx="139.1" cy="19.5" r="14.9"/>
	<circle class="st0" cx="171.6" cy="51.8" r="14.9"/>
	<circle class="st0" cx="51" cy="19.5" r="14.9"/>
	<circle class="st0" cx="18.7" cy="51.8" r="14.9"/>
	<circle class="st0" cx="18.7" cy="139.5" r="14.9"/>
	
		<ellipse transform="matrix(7.088896e-02 -0.9975 0.9975 7.088896e-02 19.7508 301.2223)" class="st0" cx="171.6" cy="140" rx="14.9" ry="14.9"/>
	<path class="st0" d="M25.7,75.8C16.6,72.6,6.5,76,1.2,84v23.5c6.5,9.7,19.6,12.3,29.3,5.8c9.7-6.5,12.3-19.6,5.8-29.3
		C33.8,80.2,30,77.3,25.7,75.8z"/>
	<path class="st0" d="M74.9,12.6c-3.9,11,2,23.1,13,26.9c11,3.9,23.1-2,26.9-13c3.4-9.8-0.8-20.7-9.9-25.6H84.8
		C80.1,3.4,76.6,7.6,74.9,12.6z"/>
</g>
</svg>
