<svg id="Capa_1" data-name="Capa 1" xmlns="http://www.w3.org/2000/svg" viewBox="0 0 486.59 488.2"><defs><style>.cls-1{fill:#111;}</style></defs><circle class="cls-1" cx="239.5" cy="241.13" r="23.39"/><circle class="cls-1" cx="336.2" cy="144.29" r="23.39"/><circle class="cls-1" cx="336.2" cy="337.77" r="23.39"/><circle class="cls-1" cx="141.16" cy="144.29" r="23.39"/><circle class="cls-1" cx="141.16" cy="337.77" r="23.39"/><circle class="cls-1" cx="44.59" cy="436.31" r="23.39"/><circle class="cls-1" cx="44.59" cy="47.24" r="23.39"/><circle class="cls-1" cx="433.24" cy="47.24" r="23.39"/><circle class="cls-1" cx="433.39" cy="436.31" r="23.39"/><circle class="cls-1" cx="157.19" cy="240.55" r="37.52"/><circle class="cls-1" cx="239.5" cy="323.63" r="37.52"/><circle class="cls-1" cx="238.68" cy="158.63" r="37.52"/><circle class="cls-1" cx="322.05" cy="241.13" r="37.52"/><circle class="cls-1" cx="125.93" cy="435" r="37.52"/><circle class="cls-1" cx="350.34" cy="435" r="37.52"/><circle class="cls-1" cx="238.14" cy="435" r="53.2"/><circle class="cls-1" cx="433.39" cy="241.13" r="53.2"/><circle class="cls-1" cx="350.75" cy="47.24" r="37.93"/><circle class="cls-1" cx="433.39" cy="129.27" r="37.93"/><circle class="cls-1" cx="126.61" cy="47.24" r="37.93"/><circle class="cls-1" cx="44.59" cy="129.27" r="37.93"/><circle class="cls-1" cx="44.59" cy="352.33" r="37.93"/><circle class="cls-1" cx="433.24" cy="353.63" r="37.93"/><path class="cls-1" d="M66.1,194.05A53.75,53.75,0,0,0,3.82,215v59.8a53.76,53.76,0,1,0,62.28-80.7Z" transform="translate(-3.82 -3.73)"/><path class="cls-1" d="M191.15,33.32a53.78,53.78,0,1,0,76.4-29.59H216.37A53.49,53.49,0,0,0,191.15,33.32Z" transform="translate(-3.82 -3.73)"/></svg>